<svg class="svg-icon" style="width: 1em; height: 1em;vertical-align: middle;fill: currentColor;overflow: hidden;" viewBox="0 0 1024 1024" version="1.1" xmlns="http://www.w3.org/2000/svg">
	<path d="M783.8304 543.2c-14.7 0-26.9-11.5-27.7-26.3C749.3304 390.2 644.5304 291 517.5304 291c-126.9 0-231.7 99.2-238.6 225.9-0.8 15.3-13.9 27.1-29.3 26.3-15.3-0.8-27.1-13.9-26.3-29.3 8.4-156.2 137.6-278.5 294.1-278.5 156.5 0 285.7 122.3 294.1 278.5 0.8 15.3-10.9 28.4-26.3 29.3h-1.4z" fill="#686868" />
	<path d="M517.5304 954.7c-201.6 0-365.6-126.8-365.6-282.6 0-65.1 27.6-126.2 80-176.7 11.1-10.7 28.6-10.4 39.3 0.7 10.7 11.1 10.4 28.6-0.7 39.3-41.2 39.8-63 87.1-63 136.7 0 125.2 139.1 227 310 227 58.4 0 115.3-12.1 164.7-34.9 8-3.7 15.9-7.7 23.5-12 13.4-7.5 30.3-2.8 37.9 10.6 7.5 13.4 2.8 30.3-10.6 37.9-8.9 5-18.1 9.7-27.4 14-56.6 26.2-121.7 40-188.1 40zM805.1304 833.6c-6.2 0-12.4-2.1-17.6-6.3-11.9-9.7-13.6-27.3-3.9-39.1 9.3-11.3 17.3-23.3 23.7-35.6 13.4-25.7 20.2-52.8 20.2-80.5 0-49.6-21.8-96.9-63-136.7-11-10.7-11.3-28.3-0.7-39.3 10.7-11.1 28.3-11.3 39.3-0.7 52.3 50.5 80 111.6 80 176.7 0 36.8-8.9 72.5-26.6 106.2-8.2 15.7-18.2 30.8-29.9 45.1a27.82 27.82 0 0 1-21.5 10.2z" fill="#686868" />
	<path d="M399.0304 506.1m-29.6 0a29.6 29.6 0 1 0 59.2 0 29.6 29.6 0 1 0-59.2 0Z" fill="#4B5063" />
	<path d="M624.2304 506.1m-29.6 0a29.6 29.6 0 1 0 59.2 0 29.6 29.6 0 1 0-59.2 0Z" fill="#4B5063" />
	<path d="M452.3304 786.7c-40.3 0-73.2-40.8-73.2-90.9 0-7.7 6.2-13.9 13.9-13.9s13.9 6.2 13.9 13.9c0 34.8 20.3 63.1 45.4 63.1s45.4-28.3 45.4-63.1c0-7.7 6.2-13.9 13.9-13.9s13.9 6.2 13.9 13.9c0 50.1-32.8 90.9-73.2 90.9z" fill="#686868" />
	<path d="M576.8304 786.7c-43.6 0-79.1-40.8-79.1-90.9 0-7.7 6.2-13.9 13.9-13.9s13.9 6.2 13.9 13.9c0 34.8 23 63.1 51.3 63.1 28.3 0 51.3-28.3 51.3-63.1 0-7.7 6.2-13.9 13.9-13.9s13.9 6.2 13.9 13.9c0 50.1-35.5 90.9-79.1 90.9zM793.0304 448c-8.4 0-16.6-3.7-22.1-10.9-9.3-12.2-7-29.6 5.1-39 47.3-36.3 173.9-147.3 190.5-223.9 3.3-15 18.1-24.5 33.1-21.3 15 3.3 24.5 18.1 21.3 33.1C997.0304 296.3 829.0304 427.6 809.9304 442.2c-5.1 3.9-11 5.8-16.9 5.8zM643.4304 298.7c-6.4 0-12.9-2.2-18.1-6.7-11.6-10-13-27.6-3-39.2C627.0304 247.3 739.7304 117 848.0304 73.5c24-9.6 46.6-14.5 67.3-14.5h0.7c28.4 0.2 53.3 9.3 73.9 27.2 11.6 10.1 12.9 27.6 2.8 39.2-10 11.6-27.6 12.9-39.2 2.8-10.5-9.1-22.9-13.5-37.8-13.6h-0.4c-13.5 0-29.2 3.5-46.6 10.5-95.8 38.5-203.1 162.7-204.2 163.9-5.5 6.4-13.3 9.7-21.1 9.7zM239.7304 460.2c-6 0-12-1.9-17.1-5.9C200.1304 436.7 2.9304 279 0.0304 161.6c-0.7-29.9 10.7-56 33.2-75.4C71.7304 52.9 144.0304 33 269.8304 127.4c68.7 51.6 122.9 113.8 125.1 116.5 10 11.6 8.8 29.2-2.8 39.2-11.6 10-29.2 8.8-39.2-2.8-51-58.9-212.5-213.2-283.2-152-10 8.7-14.3 18.5-14 32 1.7 68.8 124.3 190 201.2 250.2 12.1 9.5 14.2 26.9 4.7 39-5.5 7-13.7 10.7-21.9 10.7zM748.7304 336.3c-3.6 0-7.1-1.4-9.8-4.1-5.4-5.4-5.4-14.2 0-19.7l94.8-94.8c5.4-5.4 14.2-5.4 19.7 0 5.4 5.4 5.4 14.2 0 19.7l-94.8 94.8c-2.8 2.7-6.4 4.1-9.9 4.1z" fill="#686868" />
	<path d="M321.9304 360c-3.2 0-6.4-1.1-9-3.3l-154-130.4c-5.9-5-6.6-13.7-1.6-19.6 5-5.9 13.7-6.6 19.6-1.6L331.0304 335.5c5.9 5 6.6 13.7 1.6 19.6-2.8 3.2-6.7 4.9-10.7 4.9z" fill="#686868" />
</svg>
